<svg width="800" height="800" viewBox="0 0 800 800" fill="none" xmlns="http://www.w3.org/2000/svg">
<path fill-rule="evenodd" clip-rule="evenodd" d="M666.667 33.3334C721.897 33.3334 766.667 78.105 766.667 133.333V666.667C766.667 721.897 721.897 766.667 666.667 766.667H133.333C78.1052 766.667 33.3335 721.897 33.3335 666.667V133.333C33.3335 78.105 78.1052 33.3334 133.333 33.3334H666.667ZM666.667 100C685.077 100 700 114.924 700 133.333V666.667C700 685.077 685.077 700 666.667 700H500V466.663H569.207C583.553 466.663 596.29 457.483 600.83 443.87L615.597 399.57C620.993 383.38 608.943 366.663 591.88 366.663H500V299.997C500 283.331 516.667 266.664 533.333 266.664H600C618.41 266.664 633.333 251.74 633.333 233.331V210.464C633.333 199.697 626.457 190.043 616.043 187.296C572.35 175.765 533.333 175.765 533.333 175.765C450 175.765 400 233.331 400 283.331V366.663H333.333C314.924 366.663 300 381.587 300 399.997V433.33C300 451.74 314.924 466.663 333.333 466.663H400V700H133.333C114.924 700 100 685.077 100 666.667V133.333C100 114.924 114.924 100 133.333 100H666.667Z" fill="#546371"/>
</svg>
