<svg width="734" height="734" viewBox="0 0 734 734" fill="none" xmlns="http://www.w3.org/2000/svg">
<path fill-rule="evenodd" clip-rule="evenodd" d="M633.667 0.333374C688.897 0.333374 733.667 45.105 733.667 100.333V633.667C733.667 688.897 688.897 733.667 633.667 733.667H100.333C45.1052 733.667 0.333496 688.897 0.333496 633.667V100.333C0.333496 45.105 45.1052 0.333374 100.333 0.333374H633.667ZM633.667 67C652.077 67 667 81.924 667 100.333V633.667C667 652.077 652.077 667 633.667 667H467V433.663H536.207C550.553 433.663 563.29 424.483 567.83 410.87L582.597 366.57C587.993 350.38 575.943 333.663 558.88 333.663H467V266.997C467 250.331 483.667 233.664 500.333 233.664H567C585.41 233.664 600.333 218.74 600.333 200.331V177.464C600.333 166.697 593.457 157.043 583.043 154.296C539.35 142.765 500.333 142.765 500.333 142.765C417 142.765 367 200.331 367 250.331V333.663H300.333C281.924 333.663 267 348.587 267 366.997V400.33C267 418.74 281.924 433.663 300.333 433.663H367V667H100.333C81.9242 667 67.0002 652.077 67.0002 633.667V100.333C67.0002 81.924 81.9242 67 100.333 67H633.667Z" fill="#87929B"/>
</svg>
