<svg width="58" height="58" viewBox="0 0 58 58" fill="none" xmlns="http://www.w3.org/2000/svg">
<path fill-rule="evenodd" clip-rule="evenodd" d="M29 43.5C37.0081 43.5 43.5 37.0081 43.5 29C43.5 20.9919 37.0081 14.5 29 14.5C20.9919 14.5 14.5 20.9919 14.5 29C14.5 37.0081 20.9919 43.5 29 43.5ZM29 38.6667C34.3387 38.6667 38.6667 34.3387 38.6667 29C38.6667 23.6612 34.3387 19.3333 29 19.3333C23.6612 19.3333 19.3333 23.6612 19.3333 29C19.3333 34.3387 23.6612 38.6667 29 38.6667Z" fill="#546371"/>
<path d="M43.5002 12.0833C42.1654 12.0833 41.0835 13.1652 41.0835 14.4999C41.0835 15.8346 42.1654 16.9166 43.5002 16.9166C44.8349 16.9166 45.9168 15.8346 45.9168 14.4999C45.9168 13.1652 44.8349 12.0833 43.5002 12.0833Z" fill="#546371"/>
<path fill-rule="evenodd" clip-rule="evenodd" d="M3.99691 10.3339C2.4165 13.4356 2.4165 17.496 2.4165 25.6167V32.3834C2.4165 40.5041 2.4165 44.5646 3.99691 47.6662C5.38707 50.3946 7.60528 52.6128 10.3336 54.0029C13.4354 55.5834 17.4958 55.5834 25.6165 55.5834H32.3832C40.5039 55.5834 44.5644 55.5834 47.6659 54.0029C50.3943 52.6128 52.6126 50.3946 54.0027 47.6662C55.5832 44.5646 55.5832 40.5041 55.5832 32.3834V25.6167C55.5832 17.496 55.5832 13.4356 54.0027 10.3339C52.6126 7.60552 50.3943 5.38731 47.6659 3.99715C44.5644 2.41675 40.5039 2.41675 32.3832 2.41675H25.6165C17.4958 2.41675 13.4354 2.41675 10.3336 3.99715C7.60528 5.38731 5.38707 7.60552 3.99691 10.3339ZM32.3832 7.25008H25.6165C21.4764 7.25008 18.6619 7.25385 16.4865 7.43157C14.3675 7.6047 13.2839 7.91851 12.5279 8.30368C10.709 9.23047 9.23022 10.7093 8.30343 12.5282C7.91826 13.2841 7.60446 14.3677 7.43133 16.4868C7.25361 18.6622 7.24984 21.4766 7.24984 25.6167V32.3834C7.24984 36.5236 7.25361 39.3379 7.43133 41.5133C7.60446 43.6325 7.91826 44.7161 8.30343 45.4721C9.23022 47.2909 10.709 48.7696 12.5279 49.6964C13.2839 50.0816 14.3675 50.3956 16.4865 50.5686C18.6619 50.7462 21.4764 50.7501 25.6165 50.7501H32.3832C36.5234 50.7501 39.3376 50.7462 41.5131 50.5686C43.6323 50.3956 44.7159 50.0816 45.4718 49.6964C47.2906 48.7696 48.7694 47.2909 49.6962 45.4721C50.0814 44.7161 50.3953 43.6325 50.5683 41.5133C50.746 39.3379 50.7498 36.5236 50.7498 32.3834V25.6167C50.7498 21.4766 50.746 18.6622 50.5683 16.4868C50.3953 14.3677 50.0814 13.2841 49.6962 12.5282C48.7694 10.7093 47.2906 9.23047 45.4718 8.30368C44.7159 7.91851 43.6323 7.6047 41.5131 7.43157C39.3376 7.25385 36.5234 7.25008 32.3832 7.25008Z" fill="#546371"/>
</svg>
