<svg width="316" height="316" viewBox="0 0 316 316" fill="none" xmlns="http://www.w3.org/2000/svg">
<path fill-rule="evenodd" clip-rule="evenodd" d="M158 237C201.63 237 237 201.63 237 158C237 114.37 201.63 79 158 79C114.37 79 79 114.37 79 158C79 201.63 114.37 237 158 237ZM158 210.667C187.087 210.667 210.667 187.087 210.667 158C210.667 128.913 187.087 105.333 158 105.333C128.913 105.333 105.333 128.913 105.333 158C105.333 187.087 128.913 210.667 158 210.667Z" fill="#87929B"/>
<path d="M237.001 65.8333C229.728 65.8333 223.834 71.7277 223.834 78.9996C223.834 86.2714 229.728 92.1664 237.001 92.1664C244.273 92.1664 250.167 86.2714 250.167 78.9996C250.167 71.7277 244.273 65.8333 237.001 65.8333Z" fill="#87929B"/>
<path fill-rule="evenodd" clip-rule="evenodd" d="M21.7765 56.3021C13.166 73.201 13.166 95.3231 13.166 139.567V176.434C13.166 220.678 13.166 242.8 21.7765 259.699C29.3505 274.564 41.4359 286.649 56.3006 294.223C73.2 302.834 95.3222 302.834 139.566 302.834H176.433C220.677 302.834 242.799 302.834 259.697 294.223C274.562 286.649 286.648 274.564 294.222 259.699C302.833 242.8 302.833 220.678 302.833 176.434V139.567C302.833 95.3231 302.833 73.201 294.222 56.3021C286.648 41.4371 274.562 29.3517 259.697 21.7777C242.799 13.1672 220.677 13.1672 176.433 13.1672H139.566C95.3222 13.1672 73.2 13.1672 56.3006 21.7777C41.4359 29.3517 29.3505 41.4371 21.7765 56.3021ZM176.433 39.5006H139.566C117.01 39.5006 101.675 39.5211 89.8233 40.4894C78.2784 41.4326 72.3746 43.1423 68.2557 45.2409C58.3458 50.2903 50.289 58.3473 45.2396 68.2572C43.1411 72.3756 41.4315 78.2793 40.4882 89.8247C39.5199 101.677 39.4994 117.011 39.4994 139.567V176.434C39.4994 198.991 39.5199 214.324 40.4882 226.176C41.4315 237.722 43.1411 243.626 45.2396 247.745C50.289 257.654 58.3458 265.71 68.2557 270.76C72.3746 272.858 78.2784 274.569 89.8233 275.512C101.675 276.479 117.01 276.501 139.566 276.501H176.433C198.99 276.501 214.322 276.479 226.175 275.512C237.721 274.569 243.625 272.858 247.743 270.76C257.653 265.71 265.709 257.654 270.759 247.745C272.858 243.626 274.568 237.722 275.51 226.176C276.478 214.324 276.499 198.991 276.499 176.434V139.567C276.499 117.011 276.478 101.677 275.51 89.8247C274.568 78.2793 272.858 72.3756 270.759 68.2572C265.709 58.3473 257.653 50.2903 247.743 45.2409C243.625 43.1423 237.721 41.4326 226.175 40.4894C214.322 39.5211 198.99 39.5006 176.433 39.5006Z" fill="#87929B"/>
</svg>
