<svg width="108" height="77" viewBox="0 0 108 77" fill="none" xmlns="http://www.w3.org/2000/svg">
<path d="M0 28.8281C0 12.9006 12.9455 0 28.9286 0H30.8571C35.1241 0 38.5714 3.43535 38.5714 7.6875C38.5714 11.9396 35.1241 15.375 30.8571 15.375H28.9286C21.4795 15.375 15.4286 21.4049 15.4286 28.8281V30.75H30.8571C39.367 30.75 46.2857 37.6447 46.2857 46.125V61.5C46.2857 69.9803 39.367 76.875 30.8571 76.875H15.4286C6.91875 76.875 0 69.9803 0 61.5V53.8125V46.125V28.8281ZM61.7143 28.8281C61.7143 12.9006 74.6598 0 90.6429 0H92.5714C96.8384 0 100.286 3.43535 100.286 7.6875C100.286 11.9396 96.8384 15.375 92.5714 15.375H90.6429C83.1937 15.375 77.1429 21.4049 77.1429 28.8281V30.75H92.5714C101.081 30.75 108 37.6447 108 46.125V61.5C108 69.9803 101.081 76.875 92.5714 76.875H77.1429C68.633 76.875 61.7143 69.9803 61.7143 61.5V53.8125V46.125V28.8281Z" fill="#FFEFBE"/>
</svg>
